<?xml version="1.0" encoding="utf-8"?>
<!-- Generator: Adobe Illustrator 19.0.0, SVG Export Plug-In . SVG Version: 6.00 Build 0)  -->
<svg version="1.1" id="Layer_1" xmlns="http://www.w3.org/2000/svg" xmlns:xlink="http://www.w3.org/1999/xlink" x="0px" y="0px"
	 viewBox="0 0 326 83" style="enable-background:new 0 0 326 83;" xml:space="preserve">
<style type="text/css">
	.st0{fill:#FFFFFF;}
	.st1{fill:#09BAD1;}
	.st2{opacity:0.99;}
	.st3{fill:#384953;}
	.st4{fill:#98A7B0;}
</style>
<circle class="st0" cx="41.8" cy="41.6" r="37.1"/>
<g>
	<g>
		<path class="st1" d="M41.8,79.3C20.9,79.3,4,62.4,4,41.6S20.9,3.8,41.8,3.8s37.8,16.9,37.8,37.8S62.6,79.3,41.8,79.3z M41.8,5.4
			C21.8,5.4,5.6,21.6,5.6,41.6s16.2,36.2,36.2,36.2s36.2-16.2,36.2-36.2S61.7,5.4,41.8,5.4z"/>
	</g>
	<path class="st1" d="M57.8,56.6H25.8c-0.4,0-0.8-0.4-0.8-0.8V27.7c0-4.7,3.8-8.5,8.5-8.5h16.7c4.7,0,8.5,3.8,8.5,8.5v28.1
		C58.6,56.2,58.3,56.6,57.8,56.6z M26.6,55H57V27.7c0-3.8-3.1-6.9-6.9-6.9H33.4c-3.8,0-6.9,3.1-6.9,6.9V55z"/>
	<path class="st1" d="M33.2,51.6c-1.9,0-3.4-1.5-3.4-3.4s1.5-3.4,3.4-3.4s3.4,1.5,3.4,3.4S35.1,51.6,33.2,51.6z M33.2,46.5
		c-1,0-1.7,0.8-1.7,1.7c0,1,0.8,1.7,1.7,1.7s1.7-0.8,1.7-1.7C34.9,47.2,34.2,46.5,33.2,46.5z"/>
	<path class="st1" d="M50.4,51.6c-1.9,0-3.4-1.5-3.4-3.4s1.5-3.4,3.4-3.4s3.4,1.5,3.4,3.4S52.2,51.6,50.4,51.6z M50.4,46.5
		c-1,0-1.7,0.8-1.7,1.7c0,1,0.8,1.7,1.7,1.7s1.7-0.8,1.7-1.7C52.1,47.2,51.3,46.5,50.4,46.5z"/>
	<path class="st1" d="M46.7,25.1h-9.7c-0.4,0-0.8-0.4-0.8-0.8s0.4-0.8,0.8-0.8h9.7c0.4,0,0.8,0.4,0.8,0.8S47.1,25.1,46.7,25.1z"/>
	<path class="st1" d="M57.3,64.4c-0.3,0-0.5-0.1-0.7-0.3l-5.2-7.3c-0.3-0.4-0.2-0.9,0.2-1.1c0.4-0.3,0.9-0.2,1.1,0.2l5.2,7.3
		c0.3,0.4,0.2,0.9-0.2,1.1C57.7,64.4,57.5,64.4,57.3,64.4z"/>
	<path class="st1" d="M26.2,64.4c-0.2,0-0.3,0-0.5-0.1c-0.4-0.3-0.5-0.8-0.2-1.1l5.2-7.3c0.3-0.4,0.8-0.5,1.1-0.2
		c0.4,0.3,0.5,0.8,0.2,1.1l-5.2,7.3C26.7,64.3,26.5,64.4,26.2,64.4z"/>
	<path class="st1" d="M27.5,62.6c-0.2,0-0.3,0-0.5-0.1c-0.4-0.3-0.5-0.8-0.2-1.1l3.9-5.5c0.3-0.4,0.8-0.5,1.1-0.2
		c0.4,0.3,0.5,0.8,0.2,1.1l-3.9,5.5C28,62.5,27.7,62.6,27.5,62.6z"/>
	<path class="st1" d="M57.8,31.4H25.8c-0.4,0-0.8-0.4-0.8-0.8s0.4-0.8,0.8-0.8h32.1c0.4,0,0.8,0.4,0.8,0.8S58.3,31.4,57.8,31.4z"/>
	<path class="st1" d="M57.8,41.6H25.8c-0.4,0-0.8-0.4-0.8-0.8c0-0.4,0.4-0.8,0.8-0.8h32.1c0.4,0,0.8,0.4,0.8,0.8
		C58.6,41.3,58.3,41.6,57.8,41.6z"/>
	<path class="st1" d="M33.2,41.6c-0.2,0-0.4-0.1-0.5-0.2c-0.3-0.3-0.4-0.8-0.1-1.1l3.7-4.2c0.3-0.3,0.8-0.4,1.1-0.1
		c0.3,0.3,0.4,0.8,0.1,1.1l-3.7,4.2C33.6,41.6,33.4,41.6,33.2,41.6z"/>
	<path class="st1" d="M38.1,41.6c-0.2,0-0.4-0.1-0.5-0.2c-0.3-0.3-0.4-0.8-0.1-1.1l7.4-8.4c0.3-0.3,0.8-0.4,1.1-0.1
		c0.3,0.3,0.4,0.8,0.1,1.1l-7.4,8.4C38.5,41.6,38.3,41.6,38.1,41.6z"/>
	<path class="st1" d="M53.5,59.2H30.1c-0.4,0-0.8-0.4-0.8-0.8c0-0.4,0.4-0.8,0.8-0.8h23.4c0.4,0,0.8,0.4,0.8,0.8
		C54.3,58.8,53.9,59.2,53.5,59.2z"/>
	<path class="st1" d="M56.1,62.6H27.5c-0.4,0-0.8-0.4-0.8-0.8c0-0.4,0.4-0.8,0.8-0.8h28.6c0.4,0,0.8,0.4,0.8,0.8
		C56.9,62.2,56.5,62.6,56.1,62.6z"/>
	<path class="st1" d="M41.8,74.4C23.7,74.4,9,59.6,9,41.6C9,23.5,23.7,8.7,41.8,8.7s32.8,14.7,32.8,32.8
		C74.6,59.6,59.9,74.4,41.8,74.4z M41.8,10.4c-17.2,0-31.2,14-31.2,31.2s14,31.2,31.2,31.2S73,58.8,73,41.6S59,10.4,41.8,10.4z"/>
</g>
<g>
	<g class="st2">
		<g>
			<path class="st3" d="M118.7,23.3c-1.5-0.7-2.9-1-4.4-1c-1.9,0-3.6,0.4-5.2,1.3c-1.6,0.9-2.8,2.1-3.7,3.7
				c-0.9,1.6-1.3,3.3-1.3,5.2c0,1.9,0.4,3.6,1.3,5.2c0.9,1.6,2.1,2.8,3.7,3.7c1.6,0.9,3.3,1.4,5.2,1.4c1.4,0,2.9-0.3,4.4-1
				c1.5-0.6,2.7-1.5,3.9-2.6l3.4,3.8c-1.6,1.6-3.4,2.9-5.5,3.8c-2.1,0.9-4.2,1.4-6.4,1.4c-2.9,0-5.6-0.7-8-2.1
				c-2.4-1.4-4.3-3.3-5.7-5.6c-1.4-2.4-2.1-5-2.1-7.9s0.7-5.5,2.1-7.9c1.4-2.4,3.3-4.2,5.8-5.6c2.4-1.4,5.1-2,8.1-2
				c2.2,0,4.3,0.4,6.4,1.3c2.1,0.9,3.9,2.1,5.3,3.6l-3.4,4.2C121.4,25,120.2,24,118.7,23.3z"/>
			<path class="st3" d="M146.3,25.9c1.8,1,3.3,2.4,4.3,4.1s1.5,3.8,1.5,6.1c0,2.3-0.5,4.4-1.5,6.2c-1,1.8-2.5,3.2-4.3,4.2
				c-1.8,1-3.9,1.5-6.3,1.5c-2.4,0-4.6-0.5-6.4-1.5c-1.8-1-3.3-2.4-4.3-4.2c-1-1.8-1.5-3.9-1.5-6.2c0-2.3,0.5-4.4,1.5-6.1
				c1-1.8,2.5-3.2,4.3-4.1c1.8-1,4-1.5,6.4-1.5C142.4,24.4,144.5,24.9,146.3,25.9z M135.2,31.2c-1.2,1.3-1.8,3-1.8,5.1
				s0.6,3.8,1.8,5.1c1.2,1.3,2.8,1.9,4.8,1.9c1.9,0,3.5-0.6,4.7-1.9c1.2-1.3,1.8-3,1.8-5.1s-0.6-3.8-1.8-5.1
				c-1.2-1.3-2.8-1.9-4.7-1.9C138,29.2,136.4,29.9,135.2,31.2z"/>
			<path class="st3" d="M162.1,15.6c0.6,0.6,0.9,1.4,0.9,2.4c0,1-0.3,1.7-0.9,2.4c-0.6,0.6-1.4,1-2.3,1c-0.9,0-1.7-0.3-2.3-1
				c-0.6-0.6-0.9-1.4-0.9-2.4c0-1,0.3-1.8,0.9-2.4c0.6-0.6,1.4-1,2.3-1C160.7,14.7,161.5,15,162.1,15.6z M157.1,24.6h5.6v23.2h-5.6
				V24.6z"/>
			<path class="st3" d="M189.9,26.8c1.5,1.6,2.3,3.8,2.3,6.5v14.5h-5.7V35c0-1.6-0.5-2.9-1.4-3.8c-0.9-0.9-2.2-1.4-3.8-1.4
				c-1.9,0-3.4,0.7-4.4,1.9c-1.1,1.2-1.6,2.8-1.6,4.8v11.4h-5.6V24.6h5.6v4.3c1.6-3,4.4-4.5,8.3-4.5
				C186.2,24.4,188.3,25.2,189.9,26.8z"/>
			<path class="st3" d="M198.7,17.5h6.6l10,19.5l10-19.5h6.6v30.3h-5.3V26l-9.4,18.6h-3.7L204,26v21.7h-5.3V17.5z"/>
			<path class="st3" d="M257.2,27.6c1.9,2.1,2.8,5.1,2.8,8.9c0,0.8,0,1.3,0,1.7h-17.1c0.4,1.6,1.1,2.9,2.3,3.9s2.6,1.4,4.3,1.4
				c1.2,0,2.3-0.2,3.4-0.7c1.1-0.4,2-1.1,2.8-1.9l3,3.2c-1.2,1.3-2.6,2.3-4.2,2.9c-1.7,0.7-3.5,1-5.5,1c-2.4,0-4.5-0.5-6.3-1.5
				c-1.8-1-3.2-2.4-4.2-4.1c-1-1.8-1.5-3.8-1.5-6.1c0-2.3,0.5-4.4,1.5-6.1c1-1.8,2.4-3.2,4.2-4.2c1.8-1,3.8-1.5,6.1-1.5
				C252.5,24.4,255.3,25.5,257.2,27.6z M254.8,34.4c-0.1-1.7-0.6-3.1-1.7-4.1s-2.5-1.5-4.2-1.5c-1.6,0-3,0.5-4.1,1.5
				c-1.1,1-1.8,2.4-2.1,4.1H254.8z"/>
			<path class="st3" d="M278.4,46.3c-1.8,1.1-3.8,1.7-5.8,1.7c-2,0-3.6-0.6-4.9-1.8c-1.3-1.2-1.9-2.9-1.9-5.2V29.7h-3.2l0-4.1h3.3
				v-6.4h5.6v6.4h6.6v4.1h-6.6v10.4c0,1.1,0.2,1.8,0.6,2.3c0.4,0.4,1,0.7,1.8,0.7c0.9,0,2-0.3,3.3-1L278.4,46.3z"/>
			<path class="st3" d="M291.6,25.6c1.3-0.8,2.9-1.2,4.7-1.2v5.5c-2.4-0.1-4.3,0.4-5.7,1.7c-1.4,1.3-2.1,3-2.1,5.1v11.2h-5.6V24.6
				h5.6v4.5C289.2,27.6,290.2,26.4,291.6,25.6z"/>
			<path class="st3" d="M316.7,25.9c1.8,1,3.3,2.4,4.3,4.1c1,1.8,1.5,3.8,1.5,6.1c0,2.3-0.5,4.4-1.5,6.2c-1,1.8-2.5,3.2-4.3,4.2
				c-1.8,1-3.9,1.5-6.3,1.5c-2.4,0-4.6-0.5-6.4-1.5c-1.8-1-3.3-2.4-4.3-4.2c-1-1.8-1.5-3.9-1.5-6.2c0-2.3,0.5-4.4,1.5-6.1
				c1-1.8,2.5-3.2,4.3-4.1c1.8-1,4-1.5,6.4-1.5C312.7,24.4,314.9,24.9,316.7,25.9z M305.6,31.2c-1.2,1.3-1.8,3-1.8,5.1
				s0.6,3.8,1.8,5.1c1.2,1.3,2.8,1.9,4.8,1.9c1.9,0,3.5-0.6,4.7-1.9c1.2-1.3,1.8-3,1.8-5.1s-0.6-3.8-1.8-5.1
				c-1.2-1.3-2.8-1.9-4.7-1.9C308.4,29.2,306.8,29.9,305.6,31.2z"/>
		</g>
	</g>
	<g>
		<g>
			<path class="st4" d="M100.2,60.3h1.8v8h-1.8V60.3z"/>
			<path class="st4" d="M109.9,60.3h1.7v8H110l-3.9-5.1v5.1h-1.7v-8h1.6l3.9,5.2V60.3z"/>
			<path class="st4" d="M119.5,60.3h1.7v8h-1.6l-3.9-5.1v5.1h-1.7v-8h1.6l3.9,5.2V60.3z"/>
			<path class="st4" d="M129.4,60.7c0.7,0.4,1.2,0.9,1.6,1.5c0.4,0.6,0.6,1.3,0.6,2.1s-0.2,1.5-0.6,2.1c-0.4,0.6-0.9,1.1-1.6,1.5
				c-0.7,0.4-1.4,0.5-2.2,0.5c-0.8,0-1.5-0.2-2.2-0.5c-0.7-0.4-1.2-0.9-1.5-1.5c-0.4-0.6-0.6-1.3-0.6-2.1c0-0.8,0.2-1.5,0.6-2.1
				c0.4-0.6,0.9-1.1,1.5-1.5c0.7-0.4,1.4-0.5,2.2-0.5C128.1,60.2,128.8,60.4,129.4,60.7z M126,62.1c-0.4,0.2-0.7,0.5-0.9,0.9
				c-0.2,0.4-0.3,0.8-0.3,1.3c0,0.5,0.1,0.9,0.3,1.3c0.2,0.4,0.5,0.7,0.9,0.9c0.4,0.2,0.8,0.3,1.2,0.3s0.8-0.1,1.2-0.3
				c0.4-0.2,0.7-0.5,0.9-0.9c0.2-0.4,0.3-0.8,0.3-1.3c0-0.5-0.1-0.9-0.3-1.3c-0.2-0.4-0.5-0.7-0.9-0.9c-0.4-0.2-0.8-0.3-1.2-0.3
				S126.4,61.9,126,62.1z"/>
			<path class="st4" d="M132.3,60.3h1.9l2.2,6l2.2-6h1.9l-3.2,8h-1.9L132.3,60.3z"/>
			<path class="st4" d="M147.3,68.3l-0.6-1.6h-3.7l-0.6,1.6h-1.9l3.5-8h1.9l3.4,8H147.3z M143.5,65.3h2.5l-1.3-3.1L143.5,65.3z"/>
			<path class="st4" d="M149,60.3h6.7v1.5h-2.4v6.5h-1.8v-6.5H149V60.3z"/>
			<path class="st4" d="M157.2,60.3h1.8v8h-1.8V60.3z"/>
			<path class="st4" d="M167.3,60.7c0.7,0.4,1.2,0.9,1.5,1.5c0.4,0.6,0.6,1.3,0.6,2.1s-0.2,1.5-0.6,2.1c-0.4,0.6-0.9,1.1-1.5,1.5
				c-0.7,0.4-1.4,0.5-2.2,0.5c-0.8,0-1.5-0.2-2.2-0.5c-0.7-0.4-1.2-0.9-1.5-1.5c-0.4-0.6-0.6-1.3-0.6-2.1c0-0.8,0.2-1.5,0.6-2.1
				s0.9-1.1,1.5-1.5c0.7-0.4,1.4-0.5,2.2-0.5C165.9,60.2,166.6,60.4,167.3,60.7z M163.9,62.1c-0.4,0.2-0.7,0.5-0.9,0.9
				c-0.2,0.4-0.3,0.8-0.3,1.3c0,0.5,0.1,0.9,0.3,1.3c0.2,0.4,0.5,0.7,0.9,0.9c0.4,0.2,0.8,0.3,1.2,0.3c0.4,0,0.8-0.1,1.2-0.3
				c0.4-0.2,0.7-0.5,0.9-0.9c0.2-0.4,0.3-0.8,0.3-1.3c0-0.5-0.1-0.9-0.3-1.3c-0.2-0.4-0.5-0.7-0.9-0.9c-0.4-0.2-0.8-0.3-1.2-0.3
				C164.7,61.8,164.3,61.9,163.9,62.1z"/>
			<path class="st4" d="M176.7,60.3h1.7v8h-1.6l-3.9-5.1v5.1h-1.7v-8h1.6l3.9,5.2V60.3z"/>
			<path class="st4" d="M189.8,61c0.6,0.5,0.8,1.2,0.8,2.1c0,0.9-0.3,1.7-0.8,2.2c-0.6,0.5-1.3,0.8-2.4,0.8h-1.6v2.3H184v-8h3.4
				C188.4,60.3,189.2,60.6,189.8,61z M188.5,64.2c0.3-0.2,0.4-0.6,0.4-1c0-0.4-0.1-0.8-0.4-1c-0.3-0.2-0.7-0.3-1.2-0.3h-1.5v2.7h1.5
				C187.8,64.5,188.2,64.4,188.5,64.2z"/>
			<path class="st4" d="M198.2,60.7c0.7,0.4,1.2,0.9,1.5,1.5c0.4,0.6,0.6,1.3,0.6,2.1s-0.2,1.5-0.6,2.1c-0.4,0.6-0.9,1.1-1.5,1.5
				c-0.7,0.4-1.4,0.5-2.2,0.5c-0.8,0-1.5-0.2-2.2-0.5c-0.7-0.4-1.2-0.9-1.5-1.5c-0.4-0.6-0.6-1.3-0.6-2.1c0-0.8,0.2-1.5,0.6-2.1
				s0.9-1.1,1.5-1.5c0.7-0.4,1.4-0.5,2.2-0.5C196.9,60.2,197.6,60.4,198.2,60.7z M194.8,62.1c-0.4,0.2-0.7,0.5-0.9,0.9
				c-0.2,0.4-0.3,0.8-0.3,1.3c0,0.5,0.1,0.9,0.3,1.3c0.2,0.4,0.5,0.7,0.9,0.9c0.4,0.2,0.8,0.3,1.2,0.3c0.4,0,0.8-0.1,1.2-0.3
				c0.4-0.2,0.7-0.5,0.9-0.9c0.2-0.4,0.3-0.8,0.3-1.3c0-0.5-0.1-0.9-0.3-1.3c-0.2-0.4-0.5-0.7-0.9-0.9c-0.4-0.2-0.8-0.3-1.2-0.3
				C195.6,61.8,195.2,61.9,194.8,62.1z"/>
			<path class="st4" d="M211.8,60.3h1.9l-2.7,8h-1.9l-1.7-5.8l-1.7,5.8h-1.9l-2.7-8h1.9l1.7,6.1l1.7-6.1h1.8l1.7,6.1L211.8,60.3z"/>
			<path class="st4" d="M215.1,60.3h6.1v1.5h-4.3v1.7h3.9v1.5h-3.9v1.8h4.4v1.5h-6.2V60.3z"/>
			<path class="st4" d="M228.2,68.3L227,66h-0.2h-1.7v2.3h-1.8v-8h3.5c1,0,1.9,0.2,2.4,0.7c0.6,0.5,0.9,1.2,0.9,2.1
				c0,0.6-0.1,1.1-0.4,1.6c-0.3,0.4-0.6,0.8-1.1,1l1.7,2.6H228.2z M225.1,64.5h1.7c0.5,0,0.9-0.1,1.2-0.3c0.3-0.2,0.4-0.6,0.4-1
				c0-0.4-0.1-0.8-0.4-1c-0.3-0.2-0.7-0.3-1.2-0.3h-1.7V64.5z"/>
			<path class="st4" d="M232.2,60.3h6.1v1.5H234v1.7h3.9v1.5H234v1.8h4.4v1.5h-6.2V60.3z"/>
			<path class="st4" d="M246,60.8c0.6,0.3,1.1,0.8,1.5,1.4s0.5,1.3,0.5,2.1c0,0.8-0.2,1.5-0.5,2.1s-0.9,1.1-1.5,1.4
				c-0.6,0.3-1.4,0.5-2.2,0.5h-3.3v-8h3.4C244.6,60.3,245.3,60.5,246,60.8z M245,66.5c0.4-0.2,0.6-0.5,0.8-0.9
				c0.2-0.4,0.3-0.8,0.3-1.3c0-0.5-0.1-0.9-0.3-1.3c-0.2-0.4-0.5-0.7-0.9-0.9c-0.4-0.2-0.8-0.3-1.2-0.3h-1.6v5h1.6
				C244.3,66.8,244.7,66.7,245,66.5z"/>
			<path class="st4" d="M258.8,60.9c0.5,0.4,0.8,0.8,0.8,1.5c0,0.4-0.1,0.8-0.4,1.1c-0.2,0.3-0.6,0.5-1,0.6c0.5,0.1,0.9,0.3,1.2,0.7
				c0.3,0.4,0.4,0.8,0.4,1.3c0,0.7-0.3,1.2-0.8,1.6c-0.5,0.4-1.3,0.6-2.2,0.6H253v-8h3.7C257.6,60.3,258.3,60.5,258.8,60.9z
				 M257.4,63.3c0.2-0.2,0.3-0.4,0.3-0.7c0-0.3-0.1-0.5-0.3-0.6c-0.2-0.2-0.5-0.2-0.8-0.2h-1.8v1.7h1.8
				C256.9,63.5,257.2,63.5,257.4,63.3z M257.6,66.6c0.2-0.2,0.4-0.4,0.4-0.7c0-0.3-0.1-0.5-0.4-0.7c-0.2-0.2-0.6-0.2-1-0.2h-1.8v1.9
				h1.8C257,66.8,257.3,66.8,257.6,66.6z"/>
			<path class="st4" d="M268.5,60.3l-2.9,5.4v2.6h-1.8v-2.5l-3-5.5h1.8l2,3.6l2-3.6H268.5z"/>
			<path class="st4" d="M278,62c-0.4-0.2-0.7-0.3-1.1-0.3c-0.4,0-0.9,0.1-1.2,0.3c-0.4,0.2-0.7,0.5-0.9,0.9
				c-0.2,0.4-0.3,0.8-0.3,1.3c0,0.5,0.1,0.9,0.3,1.3c0.2,0.4,0.5,0.7,0.9,0.9c0.4,0.2,0.8,0.3,1.2,0.3c0.4,0,0.7-0.1,1.1-0.3
				c0.4-0.2,0.7-0.4,1-0.7L280,67c-0.4,0.4-0.9,0.8-1.5,1.1c-0.6,0.3-1.2,0.4-1.7,0.4c-0.8,0-1.5-0.2-2.1-0.5
				c-0.6-0.4-1.1-0.9-1.5-1.5c-0.4-0.6-0.5-1.3-0.5-2.1c0-0.8,0.2-1.5,0.6-2.1c0.4-0.6,0.9-1.1,1.5-1.5c0.7-0.4,1.4-0.5,2.2-0.5
				c0.6,0,1.2,0.1,1.7,0.4c0.6,0.2,1,0.6,1.4,1l-1.1,1.3C278.7,62.5,278.3,62.2,278,62z"/>
			<path class="st4" d="M286.6,68.3l-1.3-2.3h-0.2h-1.7v2.3h-1.8v-8h3.5c1,0,1.9,0.2,2.4,0.7c0.6,0.5,0.9,1.2,0.9,2.1
				c0,0.6-0.1,1.1-0.4,1.6c-0.3,0.4-0.6,0.8-1.1,1l1.7,2.6H286.6z M283.5,64.5h1.7c0.5,0,0.9-0.1,1.2-0.3c0.3-0.2,0.4-0.6,0.4-1
				c0-0.4-0.1-0.8-0.4-1c-0.3-0.2-0.7-0.3-1.2-0.3h-1.7V64.5z"/>
			<path class="st4" d="M297.2,60.3l-2.9,5.4v2.6h-1.8v-2.5l-3-5.5h1.8l2,3.6l2-3.6H297.2z"/>
			<path class="st4" d="M304.4,61c0.6,0.5,0.8,1.2,0.8,2.1c0,0.9-0.3,1.7-0.8,2.2c-0.6,0.5-1.3,0.8-2.4,0.8h-1.6v2.3h-1.8v-8h3.4
				C303,60.3,303.8,60.6,304.4,61z M303.1,64.2c0.3-0.2,0.4-0.6,0.4-1c0-0.4-0.1-0.8-0.4-1c-0.3-0.2-0.7-0.3-1.2-0.3h-1.5v2.7h1.5
				C302.4,64.5,302.8,64.4,303.1,64.2z"/>
			<path class="st4" d="M306.2,60.3h6.7v1.5h-2.4v6.5h-1.8v-6.5h-2.4V60.3z"/>
			<path class="st4" d="M319.9,60.7c0.7,0.4,1.2,0.9,1.5,1.5c0.4,0.6,0.6,1.3,0.6,2.1s-0.2,1.5-0.6,2.1c-0.4,0.6-0.9,1.1-1.5,1.5
				c-0.7,0.4-1.4,0.5-2.2,0.5c-0.8,0-1.5-0.2-2.2-0.5c-0.7-0.4-1.2-0.9-1.5-1.5c-0.4-0.6-0.6-1.3-0.6-2.1c0-0.8,0.2-1.5,0.6-2.1
				s0.9-1.1,1.5-1.5c0.7-0.4,1.4-0.5,2.2-0.5C318.5,60.2,319.2,60.4,319.9,60.7z M316.5,62.1c-0.4,0.2-0.7,0.5-0.9,0.9
				c-0.2,0.4-0.3,0.8-0.3,1.3c0,0.5,0.1,0.9,0.3,1.3c0.2,0.4,0.5,0.7,0.9,0.9c0.4,0.2,0.8,0.3,1.2,0.3c0.4,0,0.8-0.1,1.2-0.3
				c0.4-0.2,0.7-0.5,0.9-0.9c0.2-0.4,0.3-0.8,0.3-1.3c0-0.5-0.1-0.9-0.3-1.3c-0.2-0.4-0.5-0.7-0.9-0.9c-0.4-0.2-0.8-0.3-1.2-0.3
				C317.3,61.8,316.9,61.9,316.5,62.1z"/>
		</g>
	</g>
</g>
</svg>
